<svg width="167" height="167" viewBox="0 0 167 167" fill="none" xmlns="http://www.w3.org/2000/svg">
<path d="M87.7376 15.6562L18.023 34.89C18.023 34.89 5.21875 34.5299 5.21875 48.1299C5.21875 53.7427 7.70809 57.9255 7.70809 57.9255L60.8193 146.754C65.8972 154.843 76.6817 149.778 76.6817 149.778L158.123 110.103L155.075 107.01C154.358 103.297 153.94 96.4216 158.981 91.302C159.094 91.1872 159.114 91.0307 159.174 90.8872L161.781 89.8408L87.7376 15.6562ZM26.1485 38.0603L86.1929 21.496L152.513 87.9412L76.3425 118.56L26.1485 38.0603ZM152.419 99.5242C152.249 100.724 152.163 101.893 152.181 102.989L98.7179 128.366L152.372 105.596C152.424 106.011 152.471 106.429 152.536 106.804L84.001 139.907L153.076 109.273L153.118 109.435L76.6817 146C76.6452 146.023 73.1564 147.879 69.6599 147.879C66.2051 147.879 64.0523 146.104 63.0712 142.456C60.5479 133.083 74.8838 127.771 75.1004 127.692L154.381 93.3922C153.812 94.4359 153.418 95.4979 153.089 96.5573L102.762 120.248L152.419 99.5242Z" fill="#F8F8F8"/>
<path d="M89.9004 32.5962L38.3809 47.8297L50.9476 67.5984L104.155 48.1141L89.9004 32.5962Z" fill="#F8F8F8"/>
</svg>
