<svg width="127" height="115" viewBox="0 0 127 115" fill="none" xmlns="http://www.w3.org/2000/svg">
<g clip-path="url(#clip0_322_491)">
<path d="M36.5006 0.000175781L30.0752 13.4228H20.5225V25.4942H24.1777L27.9202 46.9669H22.0742L29.8054 86.4011L34.7623 86.3472L39.7471 115H86.9395L87.2689 113.092L91.9203 86.3436L96.6352 86.3975L104.346 46.9633H98.7624L102.481 25.4906H106.494V13.4192H96.3454L89.8962 -0.00341797L36.5006 0.000175781ZM39.2946 3.85627H87.1459L91.2138 12.3914H35.1949L39.2946 3.85627ZM24.7452 17.261H102.235V21.6741H24.7452V17.261ZM27.1423 50.8014H99.3061L93.0831 82.5091L63.1746 82.2252L33.3653 82.5091L27.1423 50.8014Z" fill="#F8F8F8"/>
</g>
<defs>
<clipPath id="clip0_322_491">
<rect width="127" height="115" fill="white"/>
</clipPath>
</defs>
</svg>
