<svg width="153" height="153" viewBox="0 0 153 153" fill="none" xmlns="http://www.w3.org/2000/svg">
<path d="M126.397 40.6026L67.7693 59.6511C67.0812 60.0944 66.2912 60.3545 65.4743 60.4065L45.3357 66.9377H129.094C130.362 66.9377 131.578 67.4415 132.474 68.3381C133.371 69.2348 133.875 70.4509 133.875 71.719V119.531C133.875 125.872 131.356 131.952 126.873 136.436C122.39 140.919 116.309 143.438 109.969 143.438H43.0311C36.6908 143.438 30.6102 140.919 26.1269 136.436C21.6436 131.952 19.1249 125.872 19.1249 119.531V71.719C19.1249 70.7053 19.4405 69.7586 19.9855 68.9745L18.1208 63.2179C16.1621 57.1882 16.6786 50.6274 19.5568 44.9786C22.435 39.3297 27.4392 35.0555 33.4686 33.096L97.1262 12.4123C103.156 10.4536 109.717 10.9701 115.366 13.8483C121.014 16.7265 125.289 21.7307 127.248 27.7601L129.467 34.5782C129.858 35.7841 129.755 37.0963 129.179 38.2261C128.604 39.3558 127.603 40.2107 126.397 40.6026ZM90.595 42.1804L102.883 20.8943C101.931 21.0047 100.992 21.2097 100.081 21.5063L88.1757 25.3695L75.668 47.0286L90.5854 42.1804H90.595ZM112.541 23.2562C112.482 23.3767 112.418 23.4947 112.35 23.61L104.183 37.7625L118.89 32.9813L118.154 30.715C117.171 27.6703 115.194 25.0438 112.541 23.2562ZM74.5778 29.7874L59.6603 34.6356L47.143 56.2947L62.0605 51.4465L74.5874 29.7874H74.5778ZM27.9511 62.539L33.5643 60.7221L46.0625 39.0535L36.4235 42.19C32.8058 43.3657 29.8033 45.9302 28.0764 49.3195C26.3494 52.7088 26.0395 56.6453 27.2148 60.2631L27.9511 62.539ZM28.6874 76.5002V119.531C28.6874 123.336 30.1986 126.984 32.8886 129.674C35.5786 132.364 39.2269 133.875 43.0311 133.875H109.969C113.773 133.875 117.421 132.364 120.111 129.674C122.801 126.984 124.312 123.336 124.312 119.531V76.5002H28.6874Z" fill="#F8F8F8"/>
</svg>
