<svg width="168" height="168" viewBox="0 0 168 168" fill="none" xmlns="http://www.w3.org/2000/svg">
<path d="M39.4277 136.5C36.8746 136.504 34.3323 136.169 31.8677 135.502C24.47 133.393 18.1937 128.468 14.3855 121.784C10.5774 115.1 9.54061 107.189 11.4977 99.7498L23.7302 53.3398C24.6829 49.5838 26.3764 46.056 28.7115 42.9637C31.0465 39.8713 33.976 37.2767 37.3277 35.3323C40.5913 33.442 44.1974 32.2181 47.9374 31.7315C51.6773 31.2448 55.4766 31.5051 59.1152 32.4973C62.9831 33.5714 66.5857 35.4373 69.6945 37.9768C72.8034 40.5164 75.3508 43.6741 77.1752 47.2498H90.8252C92.6417 43.6683 95.1866 40.506 98.2966 37.9655C101.407 35.425 105.013 33.5625 108.885 32.4973C112.524 31.5051 116.323 31.2448 120.063 31.7315C123.803 32.2181 127.409 33.442 130.673 35.3323C134.008 37.2717 136.927 39.8521 139.261 42.9247C141.594 45.9972 143.297 49.5012 144.27 53.2348L156.503 99.7498C158.489 107.211 157.461 115.154 153.639 121.863C149.818 128.573 143.511 133.509 136.08 135.607C132.442 136.599 128.642 136.86 124.902 136.373C121.162 135.886 117.556 134.663 114.293 132.772C110.952 130.84 108.029 128.261 105.694 125.188C103.36 122.114 101.66 118.607 100.695 114.87L99.7502 110.25H68.2502L67.0427 114.765C66.0775 118.502 64.3781 122.009 62.0436 125.083C59.7091 128.156 56.7862 130.735 53.4452 132.667C49.1795 135.128 44.3518 136.448 39.4277 136.5ZM51.6077 41.9998C48.4395 42.0105 45.3283 42.8426 42.5777 44.4148C38.2667 46.9441 35.1331 51.0782 33.8627 55.9123L21.6302 102.322C20.3502 107.104 20.997 112.196 23.4316 116.506C25.8662 120.816 29.8943 123.998 34.6502 125.37C36.9471 125.996 39.3454 126.161 41.7065 125.855C44.0675 125.548 46.3443 124.777 48.4052 123.585C50.5509 122.346 52.4272 120.691 53.9239 118.716C55.4205 116.742 56.5073 114.488 57.1202 112.087L60.3752 99.7498H107.625L110.828 112.087C111.451 114.483 112.542 116.732 114.038 118.706C115.534 120.679 117.404 122.337 119.543 123.585C121.614 124.776 123.899 125.546 126.269 125.853C128.638 126.159 131.044 125.995 133.35 125.37C138.112 124.011 142.145 120.828 144.573 116.512C147.001 112.197 147.628 107.097 146.318 102.322L134.085 55.9123C133.476 53.5172 132.396 51.2673 130.909 49.2934C129.422 47.3196 127.557 45.6612 125.423 44.4148C123.352 43.2239 121.066 42.4533 118.697 42.147C116.327 41.8407 113.921 42.0047 111.615 42.6298C108.764 43.4426 106.147 44.9241 103.983 46.9512C101.819 48.9783 100.17 51.4924 99.1727 54.2848L97.9127 57.7498H70.0877L68.8277 54.2848C67.8215 51.4887 66.1631 48.9728 63.9901 46.9458C61.817 44.9188 59.192 43.4392 56.3327 42.6298C54.792 42.2143 53.2035 42.0025 51.6077 41.9998Z" fill="#F8F8F8"/>
<path d="M52.5 84C50.4233 84 48.3932 83.3842 46.6665 82.2304C44.9398 81.0767 43.594 79.4368 42.7993 77.5182C42.0045 75.5996 41.7966 73.4884 42.2018 71.4516C42.6069 69.4148 43.6069 67.5438 45.0754 66.0754C46.5438 64.6069 48.4148 63.6069 50.4516 63.2018C52.4884 62.7966 54.5996 63.0045 56.5182 63.7993C58.4368 64.594 60.0767 65.9398 61.2304 67.6665C62.3842 69.3932 63 71.4233 63 73.5C63 76.2848 61.8938 78.9555 59.9246 80.9246C57.9555 82.8938 55.2848 84 52.5 84Z" fill="#F8F8F8"/>
<path d="M115.5 68.25C118.399 68.25 120.75 65.8995 120.75 63C120.75 60.1005 118.399 57.75 115.5 57.75C112.601 57.75 110.25 60.1005 110.25 63C110.25 65.8995 112.601 68.25 115.5 68.25Z" fill="#F8F8F8"/>
<path d="M115.5 89.25C118.399 89.25 120.75 86.8995 120.75 84C120.75 81.1005 118.399 78.75 115.5 78.75C112.601 78.75 110.25 81.1005 110.25 84C110.25 86.8995 112.601 89.25 115.5 89.25Z" fill="#F8F8F8"/>
<path d="M105 78.75C107.899 78.75 110.25 76.3995 110.25 73.5C110.25 70.6005 107.899 68.25 105 68.25C102.101 68.25 99.75 70.6005 99.75 73.5C99.75 76.3995 102.101 78.75 105 78.75Z" fill="#F8F8F8"/>
<path d="M126 78.75C128.899 78.75 131.25 76.3995 131.25 73.5C131.25 70.6005 128.899 68.25 126 68.25C123.101 68.25 120.75 70.6005 120.75 73.5C120.75 76.3995 123.101 78.75 126 78.75Z" fill="#F8F8F8"/>
</svg>
